<svg xmlns="http://www.w3.org/2000/svg" xmlns:xlink="http://www.w3.org/1999/xlink" viewBox="0 0 452.36 382.53"><defs><style>.cls-1,.cls-8{fill:none;}.cls-2{fill:#fff;}.cls-3{clip-path:url(#clip-path);}.cls-4{fill:#a4c5d4;}.cls-5{fill:#8bb2c0;}.cls-6{fill:#da866c;}.cls-7{fill:#b15e47;}.cls-8{stroke:#5d71ac;stroke-miterlimit:10;stroke-width:5px;}</style><clipPath id="clip-path"><circle class="cls-1" cx="220.12" cy="191.27" r="191.27"/></clipPath></defs><title>avoid_contact</title><g id="Layer_2" data-name="Layer 2"><g id="Layer_1-2" data-name="Layer 1"><circle class="cls-2" cx="220.12" cy="191.27" r="191.27"/><g class="cls-3"><path class="cls-4" d="M35.22,93.26s80.1,33.38,88.81,33.49,73.36-.91,96,5.58S320.93,182.81,341.5,203s-51,91.16-85,95S136,258.3,112.71,249.66s-40.48-37.93-40.48-37.93L4.12,193.06S-16.68,121.08,35.22,93.26Z"/><path class="cls-5" d="M108,183.29a103.8,103.8,0,0,1,71.75,12.83c22.3,13.55,33.46,35.57,43.66,58.65.43,1-1.15,1.78-1.67.84-11.77-21.33-24.33-43-46-55.57-20.79-12.08-44-13.87-67.48-12.91C105.71,187.24,105.63,183.75,108,183.29Z"/><path class="cls-6" d="M447.77,198.21s19.74-40.8-22.65-95.25c0,0-67.56,18.7-78.89,16.6-20.12-3.72-81-18.83-104.16-17s-67,38.84-94.19,45.26-30.49,12.45-28.4,19.53,45.47,10.44,87.15-4.31c0,0-85.68,63.33-90,77.68s13.71,20.71,18.34,19c0,0,4.3,8.23,12.34,12.62,10.16,5.54,21.81,3.45,21.81,3.45s3.55,20.49,27.66,16.76c0,0-2.2,14.25,18.13,14.69s84.61-19.05,109.93-34.8,57.32-50.33,64.05-53.56S447.77,198.21,447.77,198.21Z"/><path class="cls-7" d="M197,291.34c27.46-13.35,56.63-22.32,83.53-37.2a.83.83,0,0,1,.84,1.43c-24.59,16.48-53.63,33.62-83.43,38C196.72,293.74,195.66,292,197,291.34Z"/><path class="cls-7" d="M169.14,274.5C196.39,254,227.25,240.74,255,222.1c.48-.32,1.1.45.63.82-26.81,20.84-54.65,39-85.77,52.78C168.43,276.35,167.78,275.52,169.14,274.5Z"/><path class="cls-7" d="M134.29,258.07c10.71-12.91,26.85-22.75,40.18-32.91,14.89-11.35,30.1-22.21,45.46-32.9.8-.55,1.82.75,1,1.36-14.67,11.6-29.31,23.23-44.06,34.72-13.17,10.26-26.61,23.59-41.58,31.1A.87.87,0,0,1,134.29,258.07Z"/><path class="cls-4" d="M240.09,122.91c13.93,5.73,20.21,18.3,34.06,34.48,10.32,12.05,31,25.11,22,34.26s-37.68-6.84-50.91-17.78-36-11.66-38.6-10.78S166,183.95,137.89,180.26s-41.83-58.7-41.83-58.7,31.28,2.18,52.41-4.18C188.91,105.21,215.29,112.72,240.09,122.91Z"/><path class="cls-4" d="M325.23,279.11c2,13.28-16.94,24.76-25.17,19.65s-34.25-44.63-32.48-52.69,12.53-14.76,20.13-9.33S323.63,268.68,325.23,279.11Z"/><path class="cls-4" d="M345.81,250.71c4.62,11.63-10.21,26-18.74,23.09s-40.4-33.36-40.47-41,8.3-16,16.32-12.67S342.18,241.58,345.81,250.71Z"/><path class="cls-4" d="M292.07,297.57c-.85,12.48-20.43,19-26.87,12.74s-22-47.53-18.79-54.49S260.8,245,266.6,251.43,292.73,287.76,292.07,297.57Z"/><path class="cls-4" d="M262.18,309.62c-3,11.13-21.92,13.51-26.6,6.64s-11.3-47-7.09-52.66,15-7.2,19-.3S264.56,300.88,262.18,309.62Z"/></g><circle class="cls-8" cx="220.12" cy="191.27" r="135.13"/><line class="cls-8" x1="127.4" y1="93" x2="318.38" y2="283.98"/></g></g></svg>