<?xml version="1.0" encoding="iso-8859-1"?>
<!-- Generator: Adobe Illustrator 19.0.0, SVG Export Plug-In . SVG Version: 6.00 Build 0)  -->
<svg version="1.1" id="Layer_1" xmlns="http://www.w3.org/2000/svg" xmlns:xlink="http://www.w3.org/1999/xlink" x="0px" y="0px"
	 viewBox="0 0 512 512" style="enable-background:new 0 0 512 512;" xml:space="preserve">
<path style="fill:#4CF5CB;" d="M258.723,0.023v511.955C398.854,510.526,512,396.468,512,256S398.854,1.474,258.723,0.023z"/>
<path style="fill:#A3FBE5;" d="M258.723,0.023C373.996,1.789,466.989,115.723,466.989,256s-92.993,254.211-208.266,255.978
	c-0.9,0.011-1.812,0.022-2.723,0.022c-25.184,0-49.523-3.646-72.513-10.42c-22.989-6.785-44.628-16.699-64.433-29.268L0,512
	l39.688-119.054C14.561,353.348,0,306.379,0,256C0,114.62,114.62,0,256,0C256.911,0,257.823,0.011,258.723,0.023z"/>
<path id="SVGCleanerId_0" style="fill:#F0EBEA;" d="M289.409,428.403l-31.553,4.816c10.848-0.113,21.459-1.193,31.755-3.173
	C289.556,429.484,289.499,428.943,289.409,428.403z"/>
<path style="fill:#68AEF4;" d="M432.432,239.121l-44.347-101.275c-25.341-28.323-59.651-48.443-98.473-55.892
	c0,0-0.056,347.53,0,348.081C371.419,414.337,433.231,342.387,433.231,256C433.231,250.306,432.961,244.668,432.432,239.121z"/>
<path style="fill:#7CC8EF;" d="M362.935,137.846c-19.152-26.444-44.64-45.731-73.525-54.249l-67.021-1.632
	c-24.779,4.749-47.723,14.662-67.663,28.582L80.997,227.868c-1.474,9.16-2.228,18.556-2.228,28.132c0,8.721,0.63,17.307,1.857,25.69
	l45.922,95.345c25.06,26.804,58.345,45.81,95.84,53.012c0-0.011,67.021-1.643,67.021-1.643
	C352.537,409.803,399.473,339.664,399.473,256L362.935,137.846z"/>
<path style="fill:#276AAD;" d="M388.096,137.835c0,0-0.048,0.001-0.119,0.001c-2.175-2.432-4.421-4.822-6.757-7.157
	c-0.431-0.431-0.871-0.847-1.305-1.273h-23.621L399.473,256h16.08c9.329,0,16.879-7.562,16.879-16.879
	C428.775,200.378,412.638,165.258,388.096,137.835z"/>
<path style="fill:#3891E9;" d="M317.89,261.626v106.901h-39.385c-12.378,0-22.505-10.127-22.505-22.505v-39.385h-11.253
	c-12.434,0-22.505-10.071-22.505-22.506c0-12.434,10.071-22.505,22.505-22.505H317.89z"/>
<g>
	<path id="SVGCleanerId_0_1_" style="fill:#F0EBEA;" d="M289.409,428.403l-31.553,4.816c10.848-0.113,21.459-1.193,31.755-3.173
		C289.556,429.484,289.499,428.943,289.409,428.403z"/>
</g>
<path style="fill:#F0EBEA;" d="M257.857,78.78l31.553,4.816c0.09-0.54,0.146-1.08,0.203-1.632
	C279.316,79.973,268.704,78.893,257.857,78.78z"/>
<g>
	<path style="fill:#FFFFFF;" d="M289.409,83.597c-2.329,16.35-16.406,28.931-33.409,28.931c-17.566,0-32.003-13.425-33.612-30.562
		c10.881-2.104,22.123-3.196,33.612-3.196c0.619,0,1.238,0,1.857,0.011C268.704,78.949,279.271,80.615,289.409,83.597z"/>
	<path style="fill:#FFFFFF;" d="M256,399.473c17.003,0,31.08,12.581,33.409,28.931c-10.139,2.982-20.705,4.647-31.553,4.816
		c-0.619,0.011-1.238,0.011-1.857,0.011c-11.489,0-22.731-1.092-33.612-3.185C223.997,412.897,238.434,399.473,256,399.473z"/>
</g>
<g>
	<path style="fill:#3891E9;" d="M165.978,272.879v56.264l-39.43,47.892c-24.115-25.769-40.611-58.739-45.922-95.345
		c4.119-5.345,10.566-8.811,17.836-8.811H165.978L165.978,272.879z"/>
	<path style="fill:#3891E9;" d="M334.769,278.505h-90.022c-4.661,0-8.44-3.778-8.44-8.44s3.779-8.44,8.44-8.44h81.582v-33.758
		c0-4.662,3.779-8.44,8.44-8.44s8.44,3.778,8.44,8.44v42.198C343.209,274.727,339.43,278.505,334.769,278.505z"/>
	<path style="fill:#3891E9;" d="M351.648,351.648c-4.661,0-8.44-3.778-8.44-8.44v-11.253c0-4.662,3.779-8.44,8.44-8.44
		s8.44,3.778,8.44,8.44v11.253C360.088,347.87,356.309,351.648,351.648,351.648z"/>
	<path style="fill:#3891E9;" d="M368.527,284.132c-4.661,0-8.44-3.778-8.44-8.44v-39.385H241.934c-4.661,0-8.44-3.778-8.44-8.44
		c0-4.662,3.779-8.44,8.44-8.44h126.593c4.661,0,8.44,3.778,8.44,8.44v47.824C376.967,280.353,373.188,284.132,368.527,284.132z"/>
	<path style="fill:#3891E9;" d="M233.495,168.791c-4.661,0-8.44-3.778-8.44-8.44v-11.253c0-4.662,3.779-8.44,8.44-8.44
		c4.661,0,8.44,3.778,8.44,8.44v11.253C241.934,165.013,238.155,168.791,233.495,168.791z"/>
	<path style="fill:#3891E9;" d="M146.286,116.726v0.101c-34.146,26.946-58.145,66.18-65.288,111.041h65.288v2.813
		c0,4.662,3.779,8.44,8.44,8.44s8.44-3.778,8.44-8.44V104.948C157.306,108.553,151.668,112.484,146.286,116.726z"/>
	<path style="fill:#3891E9;" d="M399.473,256c0-45.394-13.818-86.792-36.538-118.154h-0.11c-2.103-2.899-4.279-5.715-6.531-8.44
		h-46.843c-4.661,0-8.44,3.778-8.44,8.44s3.779,8.44,8.44,8.44h8.44v30.945h-11.253c-9.317,0-16.879,7.562-16.879,16.879H256v33.758
		h112.527V256H399.473z"/>
</g>
<g>
</g>
<g>
</g>
<g>
</g>
<g>
</g>
<g>
</g>
<g>
</g>
<g>
</g>
<g>
</g>
<g>
</g>
<g>
</g>
<g>
</g>
<g>
</g>
<g>
</g>
<g>
</g>
<g>
</g>
</svg>
