<?xml version="1.0" encoding="iso-8859-1"?>
<!-- Generator: Adobe Illustrator 19.0.0, SVG Export Plug-In . SVG Version: 6.00 Build 0)  -->
<svg version="1.1" id="Layer_1" xmlns="http://www.w3.org/2000/svg" xmlns:xlink="http://www.w3.org/1999/xlink" x="0px" y="0px"
	 viewBox="0 0 280.036 280.036" style="enable-background:new 0 0 280.036 280.036;" xml:space="preserve">
<g>
	<path style="fill:#CCD0D2;" d="M0,87.514v167.001l0.088,0.07c0.438,14.124,11.945,25.447,26.165,25.447h26.253V87.514H0z"/>
	<path style="fill:#E4E7E7;" d="M52.505,0.005v253.766c0,14.5-11.761,26.253-26.253,26.253H253.59l0.018-0.017l0.184,0.017
		c14.465,0,26.218-11.717,26.244-26.191V0.005H52.505z"/>
	<path style="fill:#B6B9B9;" d="M78.758,96.265v17.502h175.017V96.265H78.758z M78.758,148.77h175.017v-17.502H78.758V148.77z
		 M78.758,183.773h175.017v-17.502H78.758V183.773z M78.758,218.777h131.263v-17.502H78.758V218.777z"/>
	<path style="fill:#9FA1A1;" d="M109.526,26.599c-2.73,0-4.769,1.654-4.769,4.629v22.446h-0.131L87.447,28.559
		c-0.831-1.068-2.8-1.96-4.008-1.96c-2.739,0-4.778,1.654-4.778,4.629v33.735c0,2.975,2.03,4.629,4.778,4.629
		c2.73,0,4.769-1.654,4.769-4.629v-22.14h0.131l17.178,24.817c0.893,1.076,2.8,1.969,4.008,1.969c2.739,0,4.778-1.654,4.778-4.629
		V31.228C114.304,28.262,112.265,26.599,109.526,26.599z M143.619,61.06H131.84v-9.04h10.44c3.054,0,4.647-2.074,4.647-4.095
		c0-2.083-1.531-4.104-4.647-4.104h-10.44v-8.663h11.201c2.984,0,4.524-2.074,4.524-4.104c0-2.074-1.47-4.095-4.524-4.095h-15.795
		c-3.369,0-4.962,2.196-4.962,5.163v32.676c0,2.669,2.1,4.445,4.909,4.445h16.425c2.993,0,4.533-2.065,4.533-4.095
		C148.152,63.073,146.682,61.06,143.619,61.06z M209.819,26.599c-3.072,0-4.533,1.654-5.093,4.27l-5.417,25.255h-0.123L190.9,30.1
		c-0.7-2.135-2.599-3.5-4.953-3.5s-4.253,1.365-4.953,3.5l-8.287,26.025h-0.123l-5.417-25.255c-0.569-2.617-2.03-4.27-5.093-4.27
		c-2.8,0-4.533,2.013-4.533,3.929l0.254,2.013l8.086,32.422c0.63,2.494,2.73,4.629,6.309,4.629c3.115,0,5.539-1.899,6.309-4.34
		l7.394-22.918h0.123l7.377,22.918c0.77,2.441,3.177,4.34,6.309,4.34c3.57,0,5.653-2.135,6.309-4.629l8.086-32.422l0.254-2.013
		C214.326,28.621,212.611,26.599,209.819,26.599z M232.458,38.658c0-2.494,2.477-3.85,5.233-3.85c3.833,0,5.854,1.776,8.462,1.776
		c2.617,0,4.27-2.083,4.27-4.393c0-4.699-8.926-5.951-12.496-5.951c-8.462,0-15.778,5.172-15.778,13.485
		c0,13.783,21.265,9.565,21.265,16.583c0,2.905-2.293,5.102-6.493,5.102c-4.139,0-7.71-2.319-10.702-2.319
		c-2.617,0-4.27,1.899-4.27,4.218c0,5.592,10.58,6.651,15.489,6.651c8.786,0,16.294-5.286,16.294-13.774
		C253.731,40.854,232.458,44.775,232.458,38.658z"/>
</g>
<g>
</g>
<g>
</g>
<g>
</g>
<g>
</g>
<g>
</g>
<g>
</g>
<g>
</g>
<g>
</g>
<g>
</g>
<g>
</g>
<g>
</g>
<g>
</g>
<g>
</g>
<g>
</g>
<g>
</g>
</svg>
