<svg xmlns="http://www.w3.org/2000/svg" xmlns:xlink="http://www.w3.org/1999/xlink" viewBox="0 0 554.22 379.7"><defs><style>.cls-1{fill:none;}.cls-2{fill:#fff;}.cls-3{clip-path:url(#clip-path);}.cls-4{fill:#da866c;}.cls-5,.cls-6{fill:#a4c5d4;}.cls-5{opacity:0.6;}.cls-7{fill:#5d71ac;}.cls-8{fill:#7087b7;}</style><clipPath id="clip-path" transform="translate(-12.22)"><circle class="cls-1" cx="211.9" cy="241.9" r="211.9"/></clipPath></defs><title>wash_hands</title><g id="Layer_2" data-name="Layer 2"><g id="Layer_1-2" data-name="Layer 1"><circle class="cls-2" cx="203.68" cy="185.9" r="185.9"/><g class="cls-3"><path class="cls-4" d="M414.22,136s-114.74,31.83-130,23.26-34.89-19-62.89-26.32-70.69-8.26-91.81-12.85-42.23,5.64-26.62,20.5,65.64,21.28,65.64,28.62S19.31,214.62,19.77,231.6s102.37-6.89,105.58-3.67S6.46,261.44,12.43,278s121.65-16.07,123.94-13.31-93.19,34.43-90.89,48.66,106-17,108.33-14.69-75.28,23-68.4,38.1,126.24-24.33,149.65-29.38,60.13-20.2,71.15-34.43,138.94-28.67,138.94-28.67S453.35,165.54,414.22,136Z" transform="translate(-12.22)"/><path class="cls-5" d="M110.37,151.06c-9-16.26-.48-36.68,15.22-45.78,12.27-7.13,29.93-8.16,43-1.48,6.15-9.31,19.64-14.07,30.13-13.56,11.58.6,21.47,7.58,24.93,18.29,5.8-3.3,13-4.33,19.3-1.92a18.7,18.7,0,0,1,10.61,10.53c10.5.75,20.78,7.2,25.67,16.35,6.73,12.53,3.45,25.44-5.41,35.27A19.53,19.53,0,0,1,277.7,183a15.43,15.43,0,0,1-10.62,12.69c5.91,13.24,4.23,29.71-9.61,37.55-11.38,6.45-25,3.54-33.69-5.13-.39-.26-.77-.45-1.15-.71-11.92,12.64-30.27,14.35-39.87,1.6-15,17.84-42.89,19.41-60.81,4.22-14-11.87-19.49-33.58-12.69-50.52A22.15,22.15,0,0,1,103.51,171C102,162.78,104.39,155.93,110.37,151.06Z" transform="translate(-12.22)"/><path class="cls-5" d="M293.06,361.32c-5.66,15.56-24.37,21.8-39.68,16.57-12-4.07-23-15.34-26.2-28.07-9.86,1.32-21-5-26.75-12.31-6.38-8.14-7.48-18.87-2.3-27.46a20.44,20.44,0,0,1-12.58-11.85,16.67,16.67,0,0,1,.87-13.3c-5.64-7.49-7.32-18.18-4-26.83,4.48-11.86,15.08-17.21,26.87-17a17.41,17.41,0,0,1,7.33-10.91,13.75,13.75,0,0,1,14.75-.29c5.44-11.72,17.49-20.24,30.86-15.52,11,3.87,17,14.71,16.28,25.64.05.41.15.78.2,1.19,15.47.61,27.36,11.94,24.42,25.86,20.77-.37,38.16,17.46,38.44,38.4.22,16.36-11.16,32.76-26.53,38.1a19.75,19.75,0,0,1-4.51,10.72C305.86,360.11,299.83,362.49,293.06,361.32Z" transform="translate(-12.22)"/><path class="cls-6" d="M128.94,171.55H308.43a9.78,9.78,0,0,1,9.78,9.78V295.78a9.78,9.78,0,0,1-9.78,9.78H128.94a9.78,9.78,0,0,1-9.78-9.78V181.33a9.79,9.79,0,0,1,9.79-9.79Z" transform="translate(74.63 -57) rotate(18.47)"/><polygon class="cls-2" points="114.58 113.35 117.02 120.98 124.65 123.42 117.02 125.85 114.58 133.48 112.15 125.85 104.52 123.42 112.15 120.98 114.58 113.35"/><polygon class="cls-2" points="203.28 313.5 205.72 321.13 213.35 323.57 205.72 326 203.28 333.63 200.85 326 193.22 323.57 200.85 321.13 203.28 313.5"/><polygon class="cls-2" points="283.88 170.78 286.31 178.41 293.94 180.85 286.31 183.28 283.88 190.91 281.44 183.28 273.81 180.85 281.44 178.41 283.88 170.78"/><polygon class="cls-2" points="61.4 287.71 63.84 295.34 71.47 297.77 63.84 300.21 61.4 307.84 58.97 300.21 51.33 297.77 58.97 295.34 61.4 287.71"/><polygon class="cls-2" points="127.96 215.76 130.4 223.39 138.03 225.82 130.4 228.26 127.96 241.9 125.53 228.26 117.89 225.82 125.53 223.39 127.96 215.76"/><polygon class="cls-2" points="269 338.6 271.43 346.23 279.06 348.66 271.43 351.1 269 364.74 266.56 351.1 258.93 348.66 266.56 346.23 269 338.6"/><polygon class="cls-2" points="226.6 113.35 229.03 120.98 236.67 123.42 229.03 125.85 226.6 139.49 224.17 125.85 216.53 123.42 224.17 120.98 226.6 113.35"/><path class="cls-7" d="M544.19,357.82s32.44-35.5,19-93c0,0-58.3-11-70.23-19.28s-22.51-29.38-41.78-43.15-89-22.49-101.44-29.84-29.84-28.46-40.4-23,17.9,52.33,55.54,69.32c0,0-79.6-23.29-89.05-26.32-16.22-5.2-61.51-33.82-68.4-26.47S218.58,199.9,252.85,218c15.21,8,52.33,22.49,52.33,22.49S253.77,229.9,240,223.93s-56.92-23.87-64.72-13.31S223.47,252.85,234,257s52.33,17,52.33,17-44.83-10.71-57.69-15.3-48.94-19-54.15-11c-7.75,11.86,50.78,41.47,77.4,50.65,0,0-53-26.79-58.3-19.51-7.34,10.1,43.61,40.47,53.1,45.37s89.36,30.6,115.37,27.54,78.65-3.67,91.5-4.9S544.19,357.82,544.19,357.82Z" transform="translate(-12.22)"/><path class="cls-8" d="M304.95,310.84c-19.68-4.76-39.42-10.3-59.21-14.47-.42-.09-.75.53-.31.74,18.2,8.63,39.32,13.34,59.32,15.28C305.63,312.48,305.8,311,304.95,310.84Z" transform="translate(-12.22)"/><path class="cls-8" d="M310.4,279.54c-4.67-2.29-10.1-3-15.12-4.23s-10.07-2.86-15.27-3.39c-.38,0-.52.54-.19.72,4.63,2.46,9.75,3.78,14.79,5.15S304.83,281,310,280.89C310.71,280.88,311.08,279.87,310.4,279.54Z" transform="translate(-12.22)"/><path class="cls-8" d="M333.48,246c-9.36-4-20.28-6.06-30.39-7.07-.44,0-.5.63-.1.75,9.66,2.94,19.9,6.16,29.87,7.8C333.68,247.63,334.4,246.41,333.48,246Z" transform="translate(-12.22)"/></g></g></g></svg>