<svg xmlns="http://www.w3.org/2000/svg" viewBox="0 0 445.04 445.04"><defs><style>.cls-1{fill:#fff;}.cls-2{fill:#5d71ac;}.cls-3{fill:#889dc8;}.cls-4{fill:#7087b7;}</style></defs><title>wear_masks</title><g id="Layer_2" data-name="Layer 2"><g id="Layer_1-2" data-name="Layer 1"><circle class="cls-1" cx="222.52" cy="222.52" r="222.52"/><path class="cls-2" d="M94.51,302c-7.91-18.15-22.5-32-37-45-2-1.84-5.09,1.19-3,3,11.71,10.49,23.6,21.38,31.62,35.1a70.75,70.75,0,0,1,8.61,21.72c6,30.25-15.07,28.63-25.19,23C54,331.18,43.21,315.51,43.3,297.69c.06-10.67,5.48-20.53,4.57-31.21-.58-6.75-3.33-15.43-9.43-19.26a16.72,16.72,0,0,0-5.81-2.1C21.08,242.83,12,243,10.24,228.06,6.71,197.7,29.8,165.26,58,156a.85.85,0,0,0-.45-1.64c-32.7,7.4-56.15,39.81-54.22,73.65.62,10.91,6.3,21.58,17.82,23.61,5.64,1,12.91-.51,17.29,4.8,5.58,6.75,2.91,17.29,1.23,24.69s-3,14.29-2.26,22a52.8,52.8,0,0,0,25,39.79c9.65,5.81,25.71,11.59,34.06.69S99.27,312.93,94.51,302Z"/><path class="cls-2" d="M424.13,257.68c-2.94-12-2.5-23.78-2-36,1.26-33.55-5.74-59.34-41-68.19-.91-.23-1.44,1.19-.55,1.57,14.76,6.23,27.66,15.5,32.62,31.41,4.15,13.31,2.64,27.32,2.27,41-.35,12.83.59,24.54,4.21,36.84,4.68,15.9,7.38,28.54-.93,43.94-6.24,11.57-15.51,21.88-25.1,30.78-6,5.59-25.15,24-34.34,9.68-5.05-7.86-1.24-22.38,1.84-30.26,8.25-21.1,30.27-36,26.52-60.8-.48-3.2-5.55-2.93-5.06.3,3.52,23.25-18,38.31-26.08,58.15-4.37,10.74-7.55,27.22-.65,37.81,15.83,24.28,54.83-23.75,62.72-35.12,7.67-11,12.93-23.34,11.64-37C429.41,273.55,426.11,265.72,424.13,257.68Z"/><path class="cls-3" d="M389.13,267.05c-7.3,7-50.14,8-81.67,20.09-23,8.81-71.63,28-87,28.17h-.27c-15.4-.18-64-19.36-87-28.17C101.63,275.07,58.79,274,51.49,267.05s-6.56-115.63-3.21-118.64,31.13-1.51,64.33-11.34c20.22-6,85.62-31.73,107.57-31.91h.27c22,.18,87.36,25.94,107.57,31.91,33.2,9.83,61,8.32,64.33,11.34S396.36,260,389.13,267.05Z"/><path class="cls-4" d="M69.76,159.67c0-1-1.66-1.31-1.8-.24-4.59,33.83-2.28,69.21,1.27,103,.18,1.74,2.9,1.81,2.78,0C69.73,228.16,70.92,194,69.76,159.67Z"/><path class="cls-4" d="M373.71,156.91c-.1-1.16-1.87-1.2-1.84,0,.93,34.55-.49,69.25.68,103.75a.92.92,0,0,0,1.84,0C378.5,226.66,376.64,190.93,373.71,156.91Z"/><path class="cls-4" d="M359,170c-23.63-5.49-47.29-10.66-70.74-17-21.18-5.71-43.21-15.36-65.1-17-21.34-1.62-43.53,6-63.91,11.65-24.73,6.82-49.35,13.89-73.87,21.5a.27.27,0,0,0,.13.52q33.54-8.15,66.79-17.39c23.22-6.41,48.79-15.89,73-13.28,21.83,2.36,43.54,11.66,64.77,17.35,22.62,6.06,45.39,11.6,68.42,15.56C359.7,172.15,360.22,170.32,359,170Z"/><path class="cls-4" d="M236.17,284.56c-24.27,3.52-53.09-10-76.23-16.75-22.76-6.63-45.49-13.33-68.45-19.22a.47.47,0,0,0-.25.91c26,8.6,52.26,16.18,78.5,23.95,21.13,6.25,44.47,17,66.81,12.5C237.47,285.76,237.06,284.43,236.17,284.56Z"/><path class="cls-4" d="M355,251.55c-30.25,5-65.07,14.83-93.8,25.41-.29.11-.18.56.13.47,29.73-8.57,64.18-16.55,94.12-24.24C356.49,252.91,356,251.37,355,251.55Z"/><path class="cls-4" d="M250,174c-25.48-6.19-53.19-2-78.82,1.35a516.45,516.45,0,0,0-80.07,16.88.22.22,0,0,0,.12.43c51.19-11.46,106-23.79,158.54-16.9C250.73,175.91,250.93,174.25,250,174Z"/><path class="cls-4" d="M357.78,191.92c-29.26-7.82-60.06-11.83-90.13-15.06-.25,0-.31.39-.06.44,29.8,5.76,59.88,12.23,90,16C358.4,193.43,358.54,192.12,357.78,191.92Z"/><path class="cls-4" d="M180.34,229c-29.15-6.88-59.49-11-89.21-14.58-.25,0-.3.39-.06.44,29.24,6.42,59.27,12.54,89.06,15.68C181,230.67,181.19,229.24,180.34,229Z"/><path class="cls-4" d="M357.35,216.62c-50.87,9.24-99.4,25-151.63,19.23-.46-.05-.53.67-.11.79,23.23,6.61,48.39,3.25,71.76-1.1,26.88-5,53.85-10.85,80.37-17.5C358.68,217.81,358.28,216.45,357.35,216.62Z"/></g></g></svg>